<svg viewBox="0 0 1774 865" fill="none" xmlns="http://www.w3.org/2000/svg">
<g filter="url(#filter0_d)">
<path d="M0.550781 626.18L243.715 8.01562H394.594V593.465H471.742V692.586H394.594V842H276.918V692.586H0.550781V626.18ZM276.918 593.465V470.418L288.637 155.965H273.988L129.457 593.465H276.918ZM544.379 246.297C544.379 209.839 547.634 178.426 554.145 152.059C560.98 125.366 569.77 103.068 580.512 85.1641C591.579 66.9349 604.275 52.2865 618.598 41.2188C632.921 30.151 647.569 21.6875 662.543 15.8281C677.842 9.64323 692.979 5.57422 707.953 3.62109C723.253 1.66797 737.25 0.691406 749.945 0.691406C761.99 0.691406 775.336 1.66797 789.984 3.62109C804.958 5.2487 819.932 8.99219 834.906 14.8516C850.206 20.3854 864.854 28.6862 878.852 39.7539C893.174 50.4961 905.707 64.9818 916.449 83.2109C927.517 101.44 936.306 123.901 942.816 150.594C949.652 177.286 953.07 209.188 953.07 246.297V598.836C953.07 635.294 949.652 666.87 942.816 693.562C936.306 719.93 927.517 742.391 916.449 760.945C905.382 779.5 892.686 794.637 878.363 806.355C864.04 817.749 849.392 826.701 834.418 833.211C819.444 839.396 804.47 843.628 789.496 845.906C774.848 848.185 761.664 849.324 749.945 849.324C736.924 849.324 722.764 848.185 707.465 845.906C692.165 843.628 676.866 839.396 661.566 833.211C646.267 826.701 631.456 817.749 617.133 806.355C603.135 794.962 590.766 779.988 580.023 761.434C569.281 742.879 560.655 720.255 554.145 693.562C547.634 666.87 544.379 635.294 544.379 598.836V246.297ZM673.773 652.059C673.773 686.564 679.958 711.629 692.328 727.254C705.023 742.879 724.229 750.691 749.945 750.691C775.01 750.691 793.728 742.879 806.098 727.254C818.467 711.629 824.652 686.564 824.652 652.059V200.398C824.652 163.94 818.467 137.41 806.098 120.809C793.728 104.207 775.01 95.9062 749.945 95.9062C724.229 95.9062 705.023 104.207 692.328 120.809C679.958 137.41 673.773 163.94 673.773 200.398V652.059ZM1039.38 626.18L1282.54 8.01562H1433.42V593.465H1510.57V692.586H1433.42V842H1315.75V692.586H1039.38V626.18ZM1315.75 593.465V470.418L1327.46 155.965H1312.82L1168.29 593.465H1315.75ZM1612.02 696.004H1758.01V842H1612.02V696.004Z" fill="#353945"/>
</g>
<defs>
<filter id="filter0_d" x="0.550781" y="0.691406" width="1772.46" height="863.633" filterUnits="userSpaceOnUse" color-interpolation-filters="sRGB">
<feFlood flood-opacity="0" result="BackgroundImageFix"/>
<feColorMatrix in="SourceAlpha" type="matrix" values="0 0 0 0 0 0 0 0 0 0 0 0 0 0 0 0 0 0 127 0"/>
<feOffset dx="15" dy="15"/>
<feColorMatrix type="matrix" values="0 0 0 0 0.575 0 0 0 0 0.575 0 0 0 0 0.575 0 0 0 0.5 0"/>
<feBlend mode="normal" in2="BackgroundImageFix" result="effect1_dropShadow"/>
<feBlend mode="normal" in="SourceGraphic" in2="effect1_dropShadow" result="shape"/>
</filter>
</defs>
</svg>
