<svg  viewBox="0 0 11 13" fill="none" xmlns="http://www.w3.org/2000/svg">
<path d="M7.47207 2.24438H1.08593C0.486697 2.24438 0 2.69905 0 3.25884V11.8186C0 12.3784 0.486697 12.833 1.08593 12.833H7.47207C8.0713 12.833 8.558 12.3784 8.558 11.8186V3.25884C8.55519 2.69905 8.06849 2.24438 7.47207 2.24438ZM7.7956 11.816C7.7956 11.9842 7.64931 12.1208 7.46926 12.1208H1.08311C0.903063 12.1208 0.756772 11.9842 0.756772 11.816V3.25884C0.756772 3.09064 0.903063 2.95397 1.08311 2.95397H7.46926C7.64931 2.95397 7.7956 3.09064 7.7956 3.25884V11.816Z"/>
<path d="M9.91445 0H3.52831C2.92908 0 2.44238 0.454663 2.44238 1.01445C2.44238 1.21156 2.61118 1.36925 2.82218 1.36925C3.03317 1.36925 3.20197 1.21156 3.20197 1.01445C3.20197 0.846251 3.34826 0.70959 3.52831 0.70959H9.91445C10.0945 0.70959 10.2408 0.846251 10.2408 1.01445V9.57421C10.2408 9.7424 10.0945 9.87907 9.91445 9.87907C9.70346 9.87907 9.53466 10.0368 9.53466 10.2339C9.53466 10.431 9.70346 10.5887 9.91445 10.5887C10.5137 10.5887 11.0004 10.134 11.0004 9.57421V1.01445C11.0004 0.454663 10.5137 0 9.91445 0Z"/>
</svg>
