<svg viewBox="0 0 14 14"  xmlns="http://www.w3.org/2000/svg">
<path d="M12.5415 1.75H10.9373C10.8987 1.75 10.8616 1.73464 10.8342 1.70729C10.8069 1.67994 10.7915 1.64284 10.7915 1.60417V0.583333C10.7915 0.428624 10.73 0.280251 10.6207 0.170854C10.5113 0.0614582 10.3629 0 10.2082 0C10.0535 0 9.90509 0.0614582 9.79569 0.170854C9.6863 0.280251 9.62484 0.428624 9.62484 0.583333V3.35417C9.62484 3.4702 9.57874 3.58148 9.4967 3.66353C9.41465 3.74557 9.30337 3.79167 9.18734 3.79167C9.07131 3.79167 8.96003 3.74557 8.87798 3.66353C8.79593 3.58148 8.74984 3.4702 8.74984 3.35417V2.04167C8.74984 1.96431 8.71911 1.89013 8.66441 1.83543C8.60971 1.78073 8.53553 1.75 8.45817 1.75H4.81234C4.77376 1.75 4.73676 1.73472 4.70942 1.70749C4.68209 1.68027 4.66666 1.64333 4.6665 1.60475V0.583333C4.6665 0.428624 4.60505 0.280251 4.49565 0.170854C4.38625 0.0614582 4.23788 0 4.08317 0C3.92846 0 3.78009 0.0614582 3.67069 0.170854C3.5613 0.280251 3.49984 0.428624 3.49984 0.583333V3.35417C3.49984 3.4702 3.45374 3.58148 3.3717 3.66353C3.28965 3.74557 3.17837 3.79167 3.06234 3.79167C2.94631 3.79167 2.83503 3.74557 2.75298 3.66353C2.67093 3.58148 2.62484 3.4702 2.62484 3.35417V2.04167C2.62484 1.96431 2.59411 1.89013 2.53941 1.83543C2.48471 1.78073 2.41053 1.75 2.33317 1.75H1.45817C1.14875 1.75 0.852005 1.87292 0.633213 2.09171C0.41442 2.3105 0.291504 2.60725 0.291504 2.91667V12.8333C0.291504 13.1428 0.41442 13.4395 0.633213 13.6583C0.852005 13.8771 1.14875 14 1.45817 14H12.5415C12.8509 14 13.1477 13.8771 13.3665 13.6583C13.5853 13.4395 13.7082 13.1428 13.7082 12.8333V2.91667C13.7082 2.60725 13.5853 2.3105 13.3665 2.09171C13.1477 1.87292 12.8509 1.75 12.5415 1.75ZM12.5415 12.5417C12.5415 12.619 12.5108 12.6932 12.4561 12.7479C12.4014 12.8026 12.3272 12.8333 12.2498 12.8333H1.74984C1.67248 12.8333 1.5983 12.8026 1.5436 12.7479C1.4889 12.6932 1.45817 12.619 1.45817 12.5417V5.54167C1.45817 5.46431 1.4889 5.39012 1.5436 5.33543C1.5983 5.28073 1.67248 5.25 1.74984 5.25H12.2498C12.3272 5.25 12.4014 5.28073 12.4561 5.33543C12.5108 5.39012 12.5415 5.46431 12.5415 5.54167V12.5417Z" />
</svg>
