<svg viewBox="0 0 19 19" fill="none" xmlns="http://www.w3.org/2000/svg">
<path d="M1.1875 3.5625H17.8125" stroke-width="1.1875" stroke-linecap="round" stroke-linejoin="round"/>
<path d="M11.2813 1.1875H7.71875C7.40381 1.1875 7.10176 1.31261 6.87906 1.53531C6.65636 1.75801 6.53125 2.06006 6.53125 2.375V3.5625H12.4688V2.375C12.4688 2.06006 12.3436 1.75801 12.1209 1.53531C11.8982 1.31261 11.5962 1.1875 11.2813 1.1875Z" stroke-width="1.1875" stroke-linecap="round" stroke-linejoin="round"/>
<path d="M7.71875 13.6563V7.71875" stroke-width="1.1875" stroke-linecap="round" stroke-linejoin="round"/>
<path d="M11.2812 13.6563V7.71875" stroke-width="1.1875" stroke-linecap="round" stroke-linejoin="round"/>
<path d="M14.9348 16.7232C14.9102 17.0201 14.7748 17.297 14.5556 17.4987C14.3363 17.7005 14.0492 17.8125 13.7513 17.8125H5.24954C4.95157 17.8125 4.66448 17.7005 4.44524 17.4987C4.226 17.297 4.09063 17.0201 4.066 16.7232L2.96875 3.5625H16.0313L14.9348 16.7232Z" stroke-width="1.1875" stroke-linecap="round" stroke-linejoin="round"/>
</svg>
